inDegrees=yes
name=ik_lifting_orientations
DataType=double
version=3
OpenSimVersion=4.5-2024-01-10-34fd6af
endheader
time	pelvis_tilt	pelvis_list	pelvis_rotation	pelvis_tx	pelvis_ty	pelvis_tz	hip_flexion_r	hip_adduction_r	hip_rotation_r	knee_angle_r	knee_angle_r_beta	ankle_angle_r	subtalar_angle_r	mtp_angle_r	hip_flexion_l	hip_adduction_l	hip_rotation_l	knee_angle_l	knee_angle_l_beta	ankle_angle_l	subtalar_angle_l	mtp_angle_l	lumbar_extension	lumbar_bending	lumbar_rotation	arm_flex_r	arm_add_r	arm_rot_r	elbow_flex_r	pro_sup_r	wrist_flex_r	wrist_dev_r	arm_flex_l	arm_add_l	arm_rot_l	elbow_flex_l	pro_sup_l	wrist_flex_l	wrist_dev_l
1.76	0.5128485957816011	0.5949340717201642	-90.81352965505826	0	0.9400000003403366	0	44.98542223482946	-10.000023670127	0	59.94192148289425	1.046183889848427	-5.000000146906382	0	0	44.98542223482946	-10.000023670127	0	59.94192148289425	1.046183889848427	-5.000000146906382	0	0	-72.90967674062772	12.39630992219574	-24.69033498675806	72.77885033698008	19.58584226651058	19.52671014532969	0.4857973026093236	-0.6263596104647408	0	0	0	-14.10236294252003	0	75.0993997454234	0.6261493392785875	0	0
1.77	0.5014350701283625	0.6236542325899743	-90.79878801716067	0	0.9400000003403366	0	44.98542801889653	-10.00002363725667	0	59.9419395874316	1.046184205832213	-5.00000014637065	0	0	44.98542801889653	-10.00002363725667	0	59.9419395874316	1.046184205832213	-5.00000014637065	0	0	-73.92399762133432	12.93170815894145	-24.65364098337642	73.88146536694059	19.76559603166424	19.63280192381949	0.4940222247668424	-0.62618682127225	0	0	0	-14.10254510197965	0	75.09936037647338	0.6259765500849063	0	0
1.78	0.5198604530375813	0.5970751882402233	-90.76844956379553	0	0.9400000003403366	0	44.98543200264466	-10.0000236146675	0	59.94195206873757	1.046184423672097	-5.00000014600274	0	0	44.98543200264466	-10.0000236146675	0	59.94195206873757	1.046184423672097	-5.00000014600274	0	0	-74.95601008761439	13.47388352072578	-24.66566942316327	74.93910222646508	19.96157864555574	19.7632035253285	0.4981402693680771	-0.6260677591912365	0	0	0	-14.10267066439701	0	75.0993332613001	0.6258574880030682	0	0
1.79	0.5024643137675431	0.6064160448614088	-90.79909351609079	0	0.9400000003403366	0	44.9854393681336	-10.00002357284251	0	59.94197510800001	1.046184825783084	-5.000000145321456	0	0	44.9854393681336	-10.00002357284251	0	59.94197510800001	1.046184825783084	-5.000000145321456	0	0	-76.01095119491598	13.93817163983088	-24.56002548020874	76.06730784731539	20.11412409966043	19.82043088633496	0.4910655840104635	-0.6258477482491401	0	0	0	-14.10290257571743	0	75.0992831284849	0.6256374770594513	0	0
1.8	0.5015996430829779	0.5893908177158245	-90.7861483515172	0	0.9400000003403366	0	44.98596251358562	-10.00002110733772	0	59.94363794440849	1.046213847753334	-5.000000107862672	0	0	44.98596251358562	-10.00002110733772	0	59.94363794440849	1.046213847753334	-5.000000107862672	0	0	-76.03980548006899	13.9568426607162	-24.54885386002498	76.02125884918439	20.06507679137719	19.84152448581499	0.6210916903593393	-0.6098262438545582	0	0	0	-14.12004916128743	0	75.09572236642056	0.6096159725541807	0	0
1.81	0.5054832115277719	0.5871116938200344	-90.80488649195395	0	0.9400000003403366	0	44.98597008540651	-10.00002106745997	0	59.9436618149234	1.046214264372413	-5.000000107229981	0	0	44.98597008540651	-10.00002106745997	0	59.9436618149234	1.046214264372413	-5.000000107229981	0	0	-77.07290716589702	14.43908006248273	-24.49360888337189	77.17284177538174	20.28225200186455	19.91008134711191	0.4839391776124814	-0.609597601078568	0	0	0	-14.120291809239	0	75.09567082921807	0.6093873297766135	0	0
1.82	0.5065667656853329	0.6009433056455425	-90.80416972261493	0	0.9400000003403366	0	44.98597692384217	-10.00002103147912	0	59.94368337004064	1.04621464058018	-5.000000106659399	0	0	44.98597692384217	-10.00002103147912	0	59.94368337004064	1.04621464058018	-5.000000106659399	0	0	-78.1090367088871	14.94930758685543	-24.426015587752	78.27373680800005	20.47054067017376	19.99815482707321	0.485452825782713	-0.6093910930116275	0	0	0	-14.12051096794277	0	75.09562428376393	0.6091808217082465	0	0
1.83	0.512948664678082	0.6222539309716033	-90.78230809228027	0	0.9400000003403366	0	44.98598128815581	-10.00002100858571	0	59.94369715008953	1.046214881087404	-5.000000106296657	0	0	44.98598128815581	-10.00002100858571	0	59.94369715008953	1.046214881087404	-5.000000106296657	0	0	-79.03842009294937	15.42762522197061	-24.96913679732116	79.22075810560813	21.23316223070874	20.19862148111457	0.4991012961808567	-0.6092592004274376	0	0	0	-14.1206510248546	0	75.09559457829145	0.6090489291231446	0	0
